# xmcd
#
# Track frame offsets: 
#        183
#        15693
#        30400
#
# Disc length: 758 seconds
#
# Revision: 0
# Processed by: cddbd v1.5.2PL0 Copyright (c) Steve Scherf et al.
# Submitted via: ExactAudioCopy v1.0b3
#
DISCID=1602f403
DTITLE=Bamby - Ding Ding Dong
DYEAR=1900
DGENRE=
TTITLE0=Ding Ding Dong (Radio Mix)
TTITLE1=Ding Ding Dong (Top Ten Mix)
TTITLE2=Ding Ding Dong (Hooligan Mix)
EXTD=
EXTT0=
EXTT1=
EXTT2=
PLAYORDER=
